<?xml version="1.0" standalone="no"?>
        <!DOCTYPE svg PUBLIC "-//W3C//DTD SVG 1.1//EN" 
        "http://www.w3.org/Graphics/SVG/1.1/DTD/svg11.dtd"><svg id="changeColor" fill="#DC7633" xmlns="http://www.w3.org/2000/svg" xmlns:xlink="http://www.w3.org/1999/xlink" width="200" zoomAndPan="magnify" viewBox="0 0 375 374.9999" height="200" preserveAspectRatio="xMidYMid meet" version="1.0"><defs><path id="pathAttribute" d="M 7.09375 7.09375 L 367.84375 7.09375 L 367.84375 367.84375 L 7.09375 367.84375 Z M 7.09375 7.09375 " fill="#737373" stroke="#fcfcfc"></path></defs><g><path id="pathAttribute" d="M 187.46875 7.09375 C 87.851562 7.09375 7.09375 87.851562 7.09375 187.46875 C 7.09375 287.085938 87.851562 367.84375 187.46875 367.84375 C 287.085938 367.84375 367.84375 287.085938 367.84375 187.46875 C 367.84375 87.851562 287.085938 7.09375 187.46875 7.09375 " fill-opacity="1" fill-rule="nonzero" fill="#737373" stroke="#fcfcfc"></path></g><g id="inner-icon" transform="translate(85, 75)"> <svg xmlns="http://www.w3.org/2000/svg" width="222" height="222" viewBox="0 0 24 24" fill="none" stroke="currentColor" stroke-width="2" stroke-linecap="round" stroke-linejoin="round" class="feather feather-external-link" id="IconChangeColor"><path d="M18 13v6a2 2 0 0 1-2 2H5a2 2 0 0 1-2-2V8a2 2 0 0 1 2-2h6" id="mainIconPathAttribute" stroke="#3b3b3b"></path><polyline points="15 3 21 3 21 9"></polyline><line x1="10" y1="14" x2="21" y2="3"></line></svg> </g></svg>